<?xml version="1.0" standalone="no"?>
<!DOCTYPE svg PUBLIC "-//W3C//DTD SVG 20010904//EN"
 "http://www.w3.org/TR/2001/REC-SVG-20010904/DTD/svg10.dtd">
<svg version="1.0" xmlns="http://www.w3.org/2000/svg"
 width="128.000000pt" height="128.000000pt" viewBox="0 0 128.000000 128.000000"
 preserveAspectRatio="xMidYMid meet">
<metadata>
Created by potrace 1.11, written by Peter Selinger 2001-2013
</metadata>
<g transform="translate(0.000000,128.000000) scale(0.100000,-0.100000)"
fill="#000000" stroke="none">
<path d="M250 992 c-19 -9 -54 -37 -102 -83 l-37 -35 -1 -260 c-1 -243 1 -262
18 -277 19 -17 60 -32 112 -42 14 -2 135 -29 270 -59 135 -31 256 -57 270 -60
14 -3 36 -8 50 -11 167 -40 192 -36 273 37 40 36 51 54 67 112 18 63 18 73 5
99 -17 34 -19 80 -6 106 16 30 18 85 4 108 -8 12 -14 32 -13 45 6 71 -1 100
-29 127 -36 34 -122 54 -150 34 -11 -7 -25 -11 -33 -8 -7 2 -24 7 -38 9 -112
21 -376 79 -382 85 -4 3 28 6 70 7 42 0 133 4 202 8 69 4 174 8 233 9 102 2
108 3 105 22 -2 16 -10 19 -33 18 -16 -2 -106 -5 -200 -7 -93 -3 -235 -8 -315
-12 -168 -8 -192 -7 -199 5 -3 5 -30 14 -59 20 -59 12 -61 12 -82 3z"/>
</g>
</svg>
